<svg xmlns="http://www.w3.org/2000/svg" version="1.1" xmlns:xlink="http://www.w3.org/1999/xlink" width="2000" height="138" viewBox="0 0 2000 138"><svg xml:space="preserve" width="2000" height="138" data-version="2" data-id="lg_9AfsiI1ajro8NPfJKg" viewBox="0 0 566 138" x="0" y="0"><rect width="100%" height="100%" fill="transparent"></rect><path fill="#fff" d="M92.55 17.06q4.87 24.27 8.2 41.62 3.33 17.34 5.43 29.13 2.09 11.8 3.24 19.27 1.16 7.48 1.58 11.92.43 4.45.47 7.05.05 2.61-.12 4.83-3.85 2.39-8.38 3.46-4.53 1.07-9.06 1.15-6.58.09-12.39-1.79-5.81-1.88-8.88-5.13l6.92-23.24-1.63-7.43h-4.61q-4.36-.26-10.34-.69-5.98-.42-11.36-.85-.86 7.18-2.05 14.18-1.2 7.01-3.64 12.69-2.43 5.68-6.75 9.02-4.31 3.33-11.49 3.24-7.18-.17-13.46-3.76-6.28-3.58-8.76-9.91l3.85-13.93 11.28.94 14.87-74.76q-5.98-.86-11.11-1.88-5.13-1.03-8.55-2.31.17-4.44 1.41-9.83 1.24-5.38 3.63-10.42 2.4-5.04 5.9-8.21 17.09 2.82 33.45 6.8 16.37 3.97 32.35 8.84M57.26 36.54l-.73 10.56q-.47 6.79-1.24 15.29T53.58 79.7q5.13-.52 10.73-1.07 5.59-.56 9.44-.9L64.6 37.14q-1.7-.17-3.54-.34t-3.8-.26"></path><rect width="106.03" height="134.1" x="-53.01" y="-67.05" fill="none" rx="0" ry="0" transform="translate(58.98 68.97)"></rect><path fill="#fff" d="M147.49 135.49q-6.49.09-12.69-1.92-6.19-2.01-9.44-5.68 1.45-6.92 2.56-11.37 1.11-4.44 2.18-7.73t2.27-6.62q-1.2-2.48-2.52-9.53-1.33-7.05-2.65-16.7-1.33-9.66-2.48-19.96-1.16-10.29-2.05-19.35-.9-9.06-1.28-15.08-.39-6.03-.22-6.8 3.93-5.29 10.43-8.46 6.49-3.16 13.8-3.2 7.3-.04 13.54 4.23l-8.12 42.47 2.48 1.19 22.82-48.02q1.36-.43 4.4-.9 3.03-.46 6.7-.55 3.25-.09 8.51 1.2 5.25 1.28 11.11 4.01 5.85 2.74 10.98 7.09.17 8.04-.69 17.86-.85 9.83-2.69 20.21-1.84 10.38-4.83 20.13-2.65 3.93-5.94 7.43-3.29 3.5-7.05 6.66 2.23 4.11 4.96 8.42 2.73 4.32 6.41 7.99 2.9-1.02 5.85-2.99 2.95-1.97 5.86-4.36l9.74 8.72q-.26 6.75-3.08 13.33-2.82 6.58-5.81 10.68-5.47 7.6-15.47 7.6-4.61 0-10.42-1.88-5.13-1.62-8.38-6.45-3.24-4.83-5.17-11.06-1.92-6.24-2.82-12.22-.89-5.98-1.32-9.83l-22.9-3.08q1.28 3.08 2.52 8.12 1.24 5.04 2.27 10.98 1.02 5.94 1.79 11.58t1.11 9.83q-2.82 1.96-6.54 2.95-3.71.98-7.73 1.06m8.03-59.13 27-1.88q1.12-7.35 1.67-14.74.56-7.39.56-13.63 0-6.23-.43-9.99l-4.02-.69q-2.22 3.42-5.72 8.93-3.51 5.51-7.27 11.67-3.75 6.15-6.96 11.57-3.2 5.43-4.83 8.76"></path><rect width="108.38" height="134.04" x="-54.19" y="-67.02" fill="none" rx="0" ry="0" transform="translate(175.75 69)"></rect><path fill="#fff" d="M319.84 135.58q-3.84 0-8.42-.64-4.57-.64-8.71-2.01-4.15-1.37-6.71-3.33-.26-1.45-.26-3.76 0-3.08.56-6.84t1.67-6.15l-37.34-79.04-.43.17q.77 2.56 2.56 9.23 1.8 6.66 4.06 15.72t4.49 18.93q2.22 9.87 3.97 18.97t2.44 15.76q.08.94.12 1.93.05.98.05 1.92 0 8.03-4.15 13.54-4.14 5.51-13.97 5.51-7.6 0-14.23-3.76-6.62-3.76-9.61-10.08l2.65-13.93 9.48.77-.68-75.11q-3.67-.25-7.6-1.28-3.93-1.03-7.18-3.08 0-5.12.98-10.34.98-5.21 3.93-9.69 2.95-4.49 8.67-7.57 4.11.52 10.81 2.1Q263.7 5.1 271.22 8q7.52 2.91 13.84 7.44l33.16 84.93.34-.34q-1.03-6.06-2.65-15.63-1.62-9.58-3.42-20.56-1.79-10.98-3.37-21.49-1.58-10.51-2.57-18.71-.98-8.2-.98-12.05 1.63-3.42 7.86-5.94 6.24-2.52 12.99-2.52 3.42 0 7.56.94 4.15.94 6.8 2.74l-7.35 97.24q3.42 4.19 5.77 8.24 2.35 4.06 3.46 10.3-2.82 6.84-9.02 9.91-6.19 3.08-13.8 3.08"></path><rect width="110.06" height="134.16" x="-55.03" y="-67.08" fill="none" rx="0" ry="0" transform="translate(288.13 69)"></rect><path fill="#fff" d="M381.19 135.49q-7.6 0-13.11-1.92t-8.93-5.08q.43-8.38 1.58-17.82 1.15-9.44 2.9-18.16 1.76-8.71 3.81-14.78-2.99-9.06-5.26-20.42-2.26-11.37-4.06-22.73-1.79-11.37-3.33-20.34 1.62-2.48 5.6-5.04 3.97-2.56 9.61-4.32 5.64-1.75 11.96-1.75 4.02 0 7.57.77 3.54.77 6.62 2.65l-6.67 77.42q2.22 10.42 3.76 23.24 1.54 12.82 2.22 24.95-5.12 3.33-14.27 3.33"></path><rect width="41.36" height="132.36" x="-20.68" y="-66.18" fill="none" rx="0" ry="0" transform="translate(375.97 69.81)"></rect><path fill="#fff" d="M428.45 135.49q-7.18-.17-13.38-3.84-6.19-3.68-8.67-10l3.85-13.93 9.48.77v-.77l5.9-74.34-14.44-4.36q.59-7.69 3.8-15.38 3.2-7.69 12.18-12.22 2.99.35 8.67 1.84 5.68 1.5 12.39 3.85 6.71 2.35 13.07 5.29 6.37 2.95 10.81 6.37l14.7 67.51.68-.09 2.22-18.8q1.12-6.32 2.35-13.24 1.24-6.93 2.4-12.99 1.15-6.07 1.92-9.91-2.39-1.03-4.57-2.05-2.18-1.03-3.8-1.97.68-7.69 5.21-15.04 4.53-7.35 13.16-10.77 3.42.52 9.31 2.74 5.9 2.22 12.43 5.42 6.54 3.21 12.14 6.71 5.59 3.51 8.41 6.5-.25 6.32-.72 16.23t-1.33 21.66q-.85 11.75-2.26 23.89-1.41 12.13-3.46 22.98l15.89-2.31 2.74 14.19q-.69 1.02-2.1 3.59-1.41 2.56-3.93 5.47-2.52 2.9-6.36 4.95-3.85 2.05-9.32 2.05-7.52 0-13.46-4.14-5.93-4.14-6.96-12.43-.51-4.02-.94-11.58-.43-7.56-.85-15.77-.52-10.08-.73-20.97-.21-10.9-.17-20.64.04-9.74.21-16.24l-1.62-.25-16.58 72.71q2.74 5.9 3.97 11.97 1.24 6.06 2.35 12.64-3.33 2.4-7.73 3.51-4.4 1.11-9.18 1.11-6.41 0-12.52-1.88-6.11-1.88-9.96-5.04 0-1.8.26-5.51.26-3.72 1.02-7.61.77-3.89 2.23-6.02l-24.7-75.97-1.62.6q.51 2.56 1.54 9.23 1.02 6.66 2.26 15.72 1.24 9.06 2.35 18.93t1.92 18.97q.81 9.1.9 15.76.09 6.16-1.75 11.37-1.84 5.21-6.15 8.37-4.32 3.16-11.84 3.16h-.51z"></path><rect width="153.13" height="134.07" x="-76.56" y="-67.03" fill="none" rx="0" ry="0" transform="translate(483.46 68.95)"></rect></svg></svg>