<?xml version="1.0" encoding="UTF-8"?>
<svg xmlns="http://www.w3.org/2000/svg" xmlns:xlink="http://www.w3.org/1999/xlink" width="6000px" height="414px" viewBox="0 0 6000 414" version="1.1">
<g id="surface1">
<path style=" stroke:none;fill-rule:nonzero;fill:rgb(100%,100%,100%);fill-opacity:1;" d="M 2428.648438 51.179688 C 2438.390625 99.71875 2446.589844 141.339844 2453.25 176.039062 C 2459.910156 210.71875 2465.339844 239.851562 2469.539062 263.429688 C 2473.71875 287.03125 2476.960938 306.300781 2479.261719 321.238281 C 2481.578125 336.199219 2483.160156 348.121094 2484 357 C 2484.859375 365.898438 2485.328125 372.949219 2485.410156 378.148438 C 2485.511719 383.371094 2485.390625 388.199219 2485.050781 392.640625 C 2477.351562 397.421875 2468.96875 400.878906 2459.910156 403.019531 C 2450.851562 405.160156 2441.789062 406.308594 2432.730469 406.46875 C 2419.570312 406.648438 2407.179688 404.859375 2395.558594 401.101562 C 2383.941406 397.339844 2375.058594 392.210938 2368.921875 385.710938 L 2389.679688 315.988281 L 2384.789062 293.699219 L 2370.960938 293.699219 C 2362.238281 293.179688 2351.898438 292.488281 2339.941406 291.628906 C 2327.980469 290.789062 2316.621094 289.941406 2305.859375 289.078125 C 2304.140625 303.441406 2302.089844 317.621094 2299.710938 331.621094 C 2297.308594 345.640625 2293.671875 358.328125 2288.789062 369.691406 C 2283.929688 381.050781 2277.179688 390.070312 2268.539062 396.75 C 2259.921875 403.410156 2248.429688 406.648438 2234.070312 406.46875 C 2219.710938 406.128906 2206.25 402.371094 2193.691406 395.191406 C 2181.128906 388.03125 2172.371094 378.121094 2167.410156 365.460938 L 2178.960938 323.671875 L 2212.800781 326.488281 L 2257.410156 102.210938 C 2245.449219 100.488281 2234.339844 98.609375 2224.078125 96.570312 C 2213.820312 94.511719 2205.269531 92.199219 2198.429688 89.640625 C 2198.769531 80.761719 2200.179688 70.929688 2202.660156 60.148438 C 2205.140625 49.390625 2208.769531 38.96875 2213.550781 28.890625 C 2218.351562 18.808594 2224.25 10.601562 2231.25 4.261719 C 2265.429688 9.898438 2298.878906 16.699219 2331.601562 24.660156 C 2364.339844 32.601562 2396.691406 41.441406 2428.648438 51.179688 M 2322.78125 109.621094 L 2320.589844 141.300781 C 2319.648438 154.878906 2318.410156 170.171875 2316.871094 187.171875 C 2315.328125 204.171875 2313.621094 221.480469 2311.738281 239.101562 C 2322 238.058594 2332.730469 236.988281 2343.929688 235.890625 C 2355.109375 234.769531 2364.550781 233.871094 2372.25 233.191406 L 2344.800781 111.421875 C 2341.398438 111.078125 2337.859375 110.738281 2334.179688 110.398438 C 2330.5 110.058594 2326.699219 109.800781 2322.78125 109.621094 "/>
<path style=" stroke:none;fill-rule:nonzero;fill:rgb(100%,100%,100%);fill-opacity:1;" d="M 2593.46875 406.46875 C 2580.488281 406.648438 2567.800781 404.730469 2555.398438 400.710938 C 2543.019531 396.691406 2533.578125 391.011719 2527.078125 383.671875 C 2529.980469 369.828125 2532.539062 358.460938 2534.761719 349.558594 C 2536.980469 340.679688 2539.160156 332.949219 2541.300781 326.371094 C 2543.441406 319.789062 2545.710938 313.171875 2548.109375 306.511719 C 2545.710938 301.550781 2543.191406 292.019531 2540.550781 277.921875 C 2537.890625 263.820312 2535.238281 247.121094 2532.601562 227.820312 C 2529.941406 208.5 2527.460938 188.539062 2525.160156 167.941406 C 2522.839844 147.359375 2520.789062 128.011719 2519.011719 109.890625 C 2517.210938 91.769531 2515.929688 76.691406 2515.171875 64.648438 C 2514.390625 52.589844 2514.171875 45.789062 2514.511719 44.25 C 2522.371094 33.671875 2532.800781 25.210938 2545.800781 18.871094 C 2558.78125 12.550781 2572.578125 9.351562 2587.199219 9.269531 C 2601.800781 9.191406 2615.339844 13.421875 2627.820312 21.960938 L 2603.460938 149.371094 L 2610.898438 152.941406 L 2679.359375 8.878906 C 2682.078125 8.019531 2686.480469 7.121094 2692.558594 6.179688 C 2698.621094 5.261719 2705.320312 4.710938 2712.660156 4.53125 C 2719.160156 4.351562 2727.671875 5.550781 2738.191406 8.128906 C 2748.691406 10.691406 2759.800781 14.699219 2771.519531 20.160156 C 2783.21875 25.640625 2794.199219 32.730469 2804.460938 41.429688 C 2804.800781 57.511719 2804.109375 75.371094 2802.390625 95.011719 C 2800.691406 114.671875 2798 134.878906 2794.320312 155.640625 C 2790.640625 176.398438 2785.808594 196.53125 2779.828125 216.03125 C 2774.53125 223.890625 2768.589844 231.320312 2762.011719 238.320312 C 2755.429688 245.320312 2748.378906 251.980469 2740.859375 258.300781 C 2745.320312 266.519531 2750.28125 274.941406 2755.738281 283.558594 C 2761.199219 292.199219 2767.609375 300.191406 2774.96875 307.53125 C 2780.769531 305.488281 2786.621094 302.5 2792.519531 298.558594 C 2798.421875 294.621094 2804.28125 290.261719 2810.101562 285.480469 L 2839.320312 311.640625 C 2838.800781 325.140625 2835.71875 338.46875 2830.078125 351.628906 C 2824.441406 364.789062 2818.628906 375.46875 2812.648438 383.671875 C 2801.710938 398.871094 2786.238281 406.46875 2766.238281 406.46875 C 2757.019531 406.46875 2746.601562 404.589844 2734.980469 400.828125 C 2724.71875 397.589844 2716.339844 391.140625 2709.839844 381.480469 C 2703.359375 371.820312 2698.191406 360.761719 2694.328125 348.300781 C 2690.488281 335.820312 2687.671875 323.601562 2685.871094 311.640625 C 2684.089844 299.679688 2682.769531 289.851562 2681.910156 282.148438 L 2613.210938 272.910156 C 2615.769531 279.070312 2618.289062 287.191406 2620.769531 297.269531 C 2623.25 307.351562 2625.519531 318.328125 2627.578125 330.210938 C 2629.621094 342.089844 2631.410156 353.671875 2632.949219 364.949219 C 2634.488281 376.230469 2635.601562 386.058594 2636.28125 394.441406 C 2630.640625 398.359375 2624.101562 401.308594 2616.660156 403.289062 C 2609.238281 405.25 2601.511719 406.308594 2593.46875 406.46875 M 2617.558594 229.078125 L 2698.558594 223.441406 C 2700.800781 208.738281 2702.46875 194 2703.570312 179.21875 C 2704.691406 164.441406 2705.25 150.808594 2705.25 138.328125 C 2705.25 125.871094 2704.820312 115.878906 2703.960938 108.359375 L 2691.898438 106.289062 C 2687.460938 113.128906 2681.738281 122.058594 2674.738281 133.078125 C 2667.71875 144.101562 2660.449219 155.769531 2652.929688 168.089844 C 2645.429688 180.390625 2638.46875 191.960938 2632.050781 202.800781 C 2625.648438 213.660156 2620.820312 222.421875 2617.558594 229.078125 "/>
<path style=" stroke:none;fill-rule:nonzero;fill:rgb(100%,100%,100%);fill-opacity:1;" d="M 3110.519531 406.738281 C 3102.839844 406.738281 3094.421875 406.101562 3085.261719 404.820312 C 3076.121094 403.539062 3067.410156 401.53125 3059.128906 398.789062 C 3050.828125 396.050781 3044.121094 392.71875 3039 388.800781 C 3038.480469 385.898438 3038.21875 382.140625 3038.21875 377.519531 C 3038.21875 371.359375 3038.78125 364.519531 3039.898438 357 C 3041.019531 349.480469 3042.691406 343.328125 3044.910156 338.550781 L 2932.890625 101.429688 L 2931.601562 101.941406 C 2933.140625 107.058594 2935.699219 116.289062 2939.28125 129.628906 C 2942.878906 142.949219 2946.941406 158.671875 2951.460938 176.789062 C 2955.980469 194.910156 2960.46875 213.839844 2964.929688 233.578125 C 2969.371094 253.320312 2973.339844 272.289062 2976.839844 290.488281 C 2980.339844 308.691406 2982.78125 324.449219 2984.160156 337.769531 C 2984.320312 339.648438 2984.441406 341.578125 2984.519531 343.558594 C 2984.621094 345.519531 2984.671875 347.441406 2984.671875 349.320312 C 2984.671875 365.378906 2980.519531 378.921875 2972.21875 389.941406 C 2963.941406 400.960938 2949.96875 406.46875 2930.308594 406.46875 C 2915.109375 406.46875 2900.878906 402.710938 2887.621094 395.191406 C 2874.378906 387.671875 2864.769531 377.589844 2858.789062 364.949219 L 2866.738281 323.160156 L 2895.179688 325.46875 L 2893.140625 100.140625 C 2885.800781 99.640625 2878.199219 98.359375 2870.339844 96.300781 C 2862.480469 94.238281 2855.300781 91.160156 2848.800781 87.058594 C 2848.800781 76.820312 2849.78125 66.480469 2851.738281 56.039062 C 2853.699219 45.621094 2857.628906 35.929688 2863.53125 26.96875 C 2869.429688 17.988281 2878.101562 10.421875 2889.539062 4.261719 C 2897.761719 5.300781 2908.570312 7.398438 2921.96875 10.558594 C 2935.390625 13.71875 2949.621094 18.199219 2964.660156 24 C 2979.699219 29.820312 2993.539062 37.261719 3006.179688 46.320312 L 3105.660156 301.109375 L 3106.679688 300.089844 C 3104.621094 287.96875 3101.96875 272.339844 3098.730469 253.199219 C 3095.488281 234.039062 3092.070312 213.480469 3088.46875 191.519531 C 3084.890625 169.558594 3081.519531 148.070312 3078.359375 127.050781 C 3075.199219 106.03125 3072.628906 87.320312 3070.648438 70.921875 C 3068.691406 54.519531 3067.710938 42.46875 3067.710938 34.769531 C 3070.96875 27.929688 3078.828125 21.988281 3091.289062 16.949219 C 3103.769531 11.910156 3116.761719 9.390625 3130.261719 9.390625 C 3137.101562 9.390625 3144.660156 10.328125 3152.941406 12.210938 C 3161.238281 14.089844 3168.039062 16.828125 3173.339844 20.429688 L 3151.289062 312.148438 C 3158.128906 320.53125 3163.898438 328.769531 3168.601562 336.871094 C 3173.300781 344.988281 3176.761719 355.289062 3178.980469 367.769531 C 3173.339844 381.449219 3164.320312 391.359375 3151.921875 397.5 C 3139.539062 403.660156 3125.738281 406.738281 3110.519531 406.738281 "/>
<path style=" stroke:none;fill-rule:nonzero;fill:rgb(100%,100%,100%);fill-opacity:1;" d="M 3294.570312 406.46875 C 3279.371094 406.46875 3266.261719 404.550781 3255.238281 400.710938 C 3244.21875 396.871094 3235.289062 391.789062 3228.449219 385.46875 C 3229.308594 368.710938 3230.890625 350.890625 3233.191406 332.011719 C 3235.488281 313.128906 3238.390625 294.96875 3241.890625 277.53125 C 3245.410156 260.109375 3249.21875 245.328125 3253.320312 233.191406 C 3247.339844 215.070312 3242.078125 194.648438 3237.539062 171.929688 C 3233.019531 149.191406 3228.960938 126.460938 3225.359375 103.738281 C 3221.78125 81 3218.449219 60.660156 3215.371094 42.71875 C 3218.609375 37.761719 3224.210938 32.71875 3232.171875 27.601562 C 3240.109375 22.480469 3249.71875 18.160156 3261 14.640625 C 3272.28125 11.140625 3284.238281 9.390625 3296.878906 9.390625 C 3304.921875 9.390625 3312.488281 10.160156 3319.589844 11.699219 C 3326.671875 13.238281 3333.289062 15.890625 3339.449219 19.648438 L 3319.441406 251.910156 C 3323.878906 272.75 3327.640625 295.988281 3330.71875 321.628906 C 3333.800781 347.269531 3336.019531 372.21875 3337.378906 396.480469 C 3327.140625 403.140625 3312.871094 406.46875 3294.570312 406.46875 "/>
<path style=" stroke:none;fill-rule:nonzero;fill:rgb(100%,100%,100%);fill-opacity:1;" d="M 3436.351562 406.46875 C 3421.988281 406.128906 3408.609375 402.289062 3396.210938 394.949219 C 3383.828125 387.589844 3375.160156 377.589844 3370.199219 364.949219 L 3381.75 323.160156 L 3410.191406 325.46875 L 3410.191406 323.160156 L 3427.890625 100.140625 L 3384.570312 87.058594 C 3385.75 71.679688 3389.550781 56.300781 3395.96875 40.921875 C 3402.371094 25.539062 3414.550781 13.320312 3432.511719 4.261719 C 3438.488281 4.960938 3447.160156 6.800781 3458.519531 9.78125 C 3469.878906 12.78125 3482.269531 16.628906 3495.691406 21.328125 C 3509.109375 26.03125 3522.179688 31.320312 3534.898438 37.199219 C 3547.640625 43.101562 3558.449219 49.46875 3567.328125 56.308594 L 3611.429688 258.839844 L 3613.46875 258.570312 L 3620.128906 202.171875 C 3622.371094 189.53125 3624.71875 176.289062 3627.179688 162.449219 C 3629.660156 148.589844 3632.058594 135.601562 3634.378906 123.480469 C 3636.679688 111.339844 3638.601562 101.429688 3640.140625 93.75 C 3635.359375 91.691406 3630.789062 89.640625 3626.429688 87.601562 C 3622.070312 85.539062 3618.269531 83.570312 3615.03125 81.691406 C 3616.390625 66.308594 3621.601562 51.269531 3630.660156 36.570312 C 3639.71875 21.871094 3652.878906 11.101562 3670.140625 4.261719 C 3676.980469 5.300781 3686.289062 8.039062 3698.070312 12.480469 C 3709.871094 16.921875 3722.300781 22.339844 3735.359375 28.738281 C 3748.441406 35.160156 3760.578125 41.871094 3771.78125 48.871094 C 3782.960938 55.890625 3791.371094 62.390625 3797.011719 68.371094 C 3796.511719 81.011719 3795.789062 97.238281 3794.851562 117.058594 C 3793.910156 136.878906 3792.578125 158.539062 3790.859375 182.039062 C 3789.160156 205.539062 3786.898438 229.429688 3784.078125 253.710938 C 3781.261719 277.96875 3777.800781 300.949219 3773.699219 322.648438 L 3821.371094 315.71875 L 3829.589844 358.289062 C 3828.210938 360.328125 3826.109375 363.921875 3823.289062 369.058594 C 3820.46875 374.179688 3816.539062 379.648438 3811.5 385.46875 C 3806.460938 391.269531 3800.101562 396.21875 3792.421875 400.320312 C 3784.71875 404.421875 3775.398438 406.46875 3764.460938 406.46875 C 3749.421875 406.46875 3735.960938 402.328125 3724.078125 394.050781 C 3712.21875 385.769531 3705.261719 373.339844 3703.199219 356.761719 C 3702.179688 348.71875 3701.238281 337.140625 3700.378906 322.019531 C 3699.519531 306.898438 3698.671875 291.128906 3697.828125 274.710938 C 3696.789062 254.550781 3696.058594 233.578125 3695.640625 211.800781 C 3695.21875 190 3695.050781 169.359375 3695.128906 149.878906 C 3695.210938 130.398438 3695.421875 114.160156 3695.761719 101.160156 L 3690.898438 100.410156 L 3641.160156 318.539062 C 3646.640625 330.339844 3650.609375 342.308594 3653.070312 354.449219 C 3655.550781 366.570312 3657.898438 379.210938 3660.121094 392.371094 C 3653.460938 397.171875 3645.730469 400.679688 3636.929688 402.898438 C 3628.128906 405.121094 3618.949219 406.230469 3609.390625 406.230469 C 3596.570312 406.230469 3584.050781 404.351562 3571.828125 400.589844 C 3559.609375 396.828125 3549.648438 391.789062 3541.949219 385.46875 C 3541.949219 381.871094 3542.210938 376.359375 3542.730469 368.941406 C 3543.25 361.5 3544.269531 353.890625 3545.789062 346.109375 C 3547.328125 338.328125 3549.558594 332.308594 3552.480469 328.050781 L 3478.378906 100.140625 L 3473.519531 101.941406 C 3474.539062 107.058594 3476.078125 116.289062 3478.140625 129.628906 C 3480.179688 142.949219 3482.441406 158.671875 3484.921875 176.789062 C 3487.398438 194.910156 3489.75 213.839844 3491.96875 233.578125 C 3494.191406 253.320312 3496.109375 272.289062 3497.730469 290.488281 C 3499.351562 308.691406 3500.25 324.449219 3500.429688 337.769531 C 3500.609375 350.089844 3498.859375 361.460938 3495.179688 371.878906 C 3491.5 382.300781 3485.351562 390.671875 3476.730469 396.988281 C 3468.089844 403.308594 3456.25 406.46875 3441.210938 406.46875 Z M 3436.351562 406.46875 "/>
</g>
</svg>
